<svg xmlns="http://www.w3.org/2000/svg" width="100" height="100" viewBox="0 0 100 100"><g stroke-linecap="round" stroke-linejoin="round"><path d="M20 62 Q20 31 49 26 Q74 25 83 47 Q74 68 55 73 Q33 81 20 62Z" fill="#DBAFE0" stroke="#DBAFE0" stroke-width="4" /><circle cx="65" cy="39" r="8" fill="#F6F6F6" stroke="none" stroke-width="0"/><circle cx="67" cy="39" r="3" fill="#18120F" stroke="none" stroke-width="0"/><polygon points="82,47 97,52 82,57" fill="#FFF133" stroke="none" stroke-width="0"/><path d="M30.0 74.0 L27.0 92.0" fill="none" stroke="#18120F" stroke-width="4" /><path d="M42.0 74.0 L45.0 92.0" fill="none" stroke="#18120F" stroke-width="4" /><path d="M17 29 Q5 29 5 43 V57 Q5 71 17 71" fill="none" stroke="#00C8E8" stroke-width="5" /><path d="M87 29 Q99 29 99 43 V57 Q99 71 87 71" fill="none" stroke="#00C8E8" stroke-width="5" /></g></svg>