<svg xmlns="http://www.w3.org/2000/svg" width="120" height="60" viewBox="0 0 120 60"><g stroke-linecap="round" stroke-linejoin="round"><path d="M8 20 Q18 4 44 9 Q69 0 104 12 Q121 21 111 48 Q79 57 51 52 Q21 62 6 43 Z" fill="#0084FF" stroke="#0084FF" stroke-width="0" /><path d="M15 12 q -6 8 0 12 q 6 -4 0 -12 Z" fill="none" stroke="#F6F6F6" stroke-width="2" /><path d="M42 12 q -6 8 0 12 q 6 -4 0 -12 Z" fill="none" stroke="#F6F6F6" stroke-width="2" /><path d="M69 12 q -6 8 0 12 q 6 -4 0 -12 Z" fill="none" stroke="#F6F6F6" stroke-width="2" /><path d="M96 12 q -6 8 0 12 q 6 -4 0 -12 Z" fill="none" stroke="#F6F6F6" stroke-width="2" /><path d="M15 36 q -6 8 0 12 q 6 -4 0 -12 Z" fill="none" stroke="#F6F6F6" stroke-width="2" /><path d="M42 36 q -6 8 0 12 q 6 -4 0 -12 Z" fill="none" stroke="#F6F6F6" stroke-width="2" /><path d="M69 36 q -6 8 0 12 q 6 -4 0 -12 Z" fill="none" stroke="#F6F6F6" stroke-width="2" /><path d="M96 36 q -6 8 0 12 q 6 -4 0 -12 Z" fill="none" stroke="#F6F6F6" stroke-width="2" /></g></svg>